<svg width="921" height="957" xmlns="http://www.w3.org/2000/svg" xmlns:xlink="http://www.w3.org/1999/xlink" xml:space="preserve" overflow="hidden"><defs><clipPath id="clip0"><rect x="2338" y="578" width="921" height="957"/></clipPath></defs><g clip-path="url(#clip0)" transform="translate(-2338 -578)"><path d="M2339 607.333C2339 591.133 2352.13 578 2368.33 578L2639.67 578C2655.87 578 2669 591.133 2669 607.333L2669 878.666C2669 894.867 2655.87 908 2639.67 908L2368.33 908C2352.13 908 2339 894.867 2339 878.666Z" fill="#B0B0B0" fill-rule="evenodd"/><text fill="#FFFFFF" font-family="Consolas,Consolas_MSFontService,sans-serif" font-weight="700" font-size="183" transform="matrix(1 0 0 1 2453.87 806)">B</text><path d="M2929 678.334C2929 662.133 2942.13 649 2958.33 649L3229.67 649C3245.87 649 3259 662.133 3259 678.334L3259 949.666C3259 965.867 3245.87 979 3229.67 979L2958.33 979C2942.13 979 2929 965.867 2929 949.666Z" fill="#34DECC" fill-rule="evenodd"/><text fill="#FFFFFF" font-family="Consolas,Consolas_MSFontService,sans-serif" font-weight="700" font-size="183" transform="matrix(1 0 0 1 3043.18 877)">E</text><path d="M2338 1121.33C2338 1105.13 2351.13 1092 2367.33 1092L2638.67 1092C2654.87 1092 2668 1105.13 2668 1121.33L2668 1392.67C2668 1408.87 2654.87 1422 2638.67 1422L2367.33 1422C2351.13 1422 2338 1408.87 2338 1392.67Z" fill="#F14F4F" fill-rule="evenodd"/><text fill="#FFFFFF" font-family="Consolas,Consolas_MSFontService,sans-serif" font-weight="700" font-size="183" transform="matrix(1 0 0 1 2452.12 1320)">T</text><path d="M2929 1179.33C2929 1163.13 2942.13 1150 2958.33 1150L3229.67 1150C3245.87 1150 3259 1163.13 3259 1179.33L3259 1450.67C3259 1466.87 3245.87 1480 3229.67 1480L2958.33 1480C2942.13 1480 2929 1466.87 2929 1450.67Z" fill="#183858" fill-rule="evenodd"/><text fill="#FFFFFF" font-family="Consolas,Consolas_MSFontService,sans-serif" font-weight="700" font-size="183" transform="matrix(1 0 0 1 3043.18 1378)">K</text><path d="M2669.17 737.846 2693.48 738.644 2705.53 739.612 2710.74 740.192 2709.6 750.442 2704.47 749.87 2704.63 749.885 2692.77 748.933 2693.01 748.946 2668.83 748.153ZM2741.8 744.942 2749.82 746.635 2759.5 749.06 2768.45 751.71 2776.58 754.568 2782.21 756.943 2778.2 766.444 2772.72 764.131 2773.02 764.246 2765.15 761.482 2765.4 761.562 2756.68 758.979 2756.89 759.037 2747.41 756.662 2747.59 756.705 2739.67 755.032ZM2804.57 780.086 2805.87 782.057 2805.07 781.112 2808.56 784.341 2807.92 783.838 2812.66 786.989 2812.17 786.704 2818.05 789.752 2817.68 789.578 2824.59 792.496 2824.3 792.382 2832.16 795.145 2831.92 795.066 2837.65 796.764 2834.72 806.652 2828.87 804.917 2820.73 802.059 2813.48 798.999 2807.17 795.728 2801.87 792.195 2797.61 788.265 2795.96 785.772ZM2867.26 803.361 2870.41 803.915 2870.24 803.889 2881.43 805.488 2881.28 805.468 2892.85 806.757 2892.69 806.742 2904.54 807.695 2904.3 807.681 2907.51 807.786 2907.17 818.093 2903.84 817.984 2891.78 817.015 2880.05 815.708 2868.7 814.086 2865.47 813.518ZM2668.63 758.464C2660.09 758.262 2653.33 751.175 2653.54 742.634 2653.74 734.093 2660.82 727.333 2669.37 727.535 2677.91 727.737 2684.67 734.825 2684.46 743.365 2684.26 751.906 2677.17 758.666 2668.63 758.464ZM2928.68 798.163C2937.22 798.365 2943.98 805.452 2943.78 813.993 2943.58 822.534 2936.49 829.294 2927.95 829.092 2919.41 828.89 2912.65 821.803 2912.85 813.262 2913.05 804.721 2920.14 797.961 2928.68 798.163Z"/><path d="M2668.14 1251.85 2692.58 1252.49 2704.68 1253.28 2709.66 1253.73 2708.73 1264 2703.82 1263.56 2703.95 1263.57 2692.01 1262.79 2692.21 1262.8 2667.86 1262.15ZM2740.76 1257.55 2749.14 1258.98 2758.85 1260.95 2767.83 1263.1 2775.98 1265.42 2781.62 1267.35 2778.29 1277.11 2772.77 1275.22 2773.03 1275.3 2765.11 1273.05 2765.32 1273.11 2756.54 1271 2756.72 1271.04 2747.17 1269.11 2747.33 1269.14 2739.03 1267.72ZM2805.07 1287.39 2808.07 1289.63 2807.43 1289.22 2812.19 1291.79 2811.75 1291.57 2817.66 1294.05 2817.33 1293.93 2824.29 1296.3 2824.03 1296.22 2831.95 1298.47 2831.74 1298.42 2840.52 1300.52 2840.35 1300.48 2841.39 1300.7 2839.34 1310.8 2838.21 1310.57 2829.24 1308.42 2821.08 1306.11 2813.83 1303.63 2807.52 1300.98 2802.2 1298.12 2798.9 1295.65ZM2871.46 1305.75 2881.73 1306.93 2881.6 1306.92 2893.24 1307.97 2893.12 1307.96 2905.05 1308.73 2904.85 1308.73 2912.11 1308.92 2911.84 1319.23 2904.48 1319.03 2892.38 1318.25 2880.61 1317.18 2870.28 1315.99ZM2667.59 1272.46C2659.05 1272.24 2652.31 1265.13 2652.54 1256.59 2652.76 1248.05 2659.87 1241.31 2668.41 1241.54 2676.95 1241.76 2683.69 1248.87 2683.46 1257.41 2683.24 1265.95 2676.13 1272.69 2667.59 1272.46ZM2929.47 1299.06C2938.01 1299.29 2944.75 1306.4 2944.53 1314.94 2944.3 1323.48 2937.19 1330.22 2928.65 1329.99 2920.11 1329.76 2913.37 1322.66 2913.6 1314.12 2913.83 1305.58 2920.93 1298.84 2929.47 1299.06Z"/><path d="M3098.13 982.168 3087.27 996.112 3081.93 999.277 3076.59 1001.96 3070.63 1004.58 3064.06 1007.12 3063.27 1007.39 3059.9 997.644 3060.6 997.403 3060.42 997.467 3066.81 994.999 3066.6 995.085 3072.33 992.574 3072.08 992.693 3077.13 990.146 3076.82 990.315 3081.18 987.737 3079.74 989.005 3089.99 975.832ZM3033.24 1016.33 3032.05 1016.64 3022.73 1018.84 3012.93 1020.97 3002.68 1023.02 2992.52 1024.89 2990.66 1014.75 3000.78 1012.89 3000.7 1012.9 3010.87 1010.87 3010.78 1010.89 3020.49 1008.78 3020.4 1008.8 3029.62 1006.61 3029.52 1006.64 3030.66 1006.35ZM2961.76 1029.74 2957.66 1030.32 2933.13 1033.36 2920.59 1034.62 2919.55 1024.36 2932.04 1023.1 2931.92 1023.11 2956.34 1020.09 2956.25 1020.1 2960.3 1019.53ZM2889.66 1037.33 2881.02 1038.01 2853.89 1039.55 2848.25 1039.74 2847.9 1029.43 2853.48 1029.24 2853.36 1029.25 2880.38 1027.72 2880.27 1027.73 2888.85 1027.05ZM2817.21 1040.6 2798.59 1040.82 2775.97 1041.09 2775.84 1030.78 2798.47 1030.51 2817.09 1030.29ZM2745.16 1042.04 2743.59 1042.09 2743.7 1042.09 2716.68 1043.62 2716.79 1043.61 2704.22 1044.6 2703.41 1034.31 2716.04 1033.32 2743.17 1031.79 2744.81 1031.73ZM2673.52 1047.38 2665.03 1048.23 2665.14 1048.22 2640.72 1051.24 2640.81 1051.23 2632.79 1052.37 2631.34 1042.16 2639.41 1041.02 2663.94 1037.98 2672.49 1037.12ZM2602.47 1057.31 2596.29 1058.45 2596.36 1058.43 2586.2 1060.47 2586.28 1060.45 2576.57 1062.56 2576.66 1062.54 2567.44 1064.72 2567.54 1064.7 2562.53 1065.99 2559.94 1056.01 2565.01 1054.7 2574.33 1052.49 2584.13 1050.36 2594.38 1048.31 2600.6 1047.17ZM2533.59 1075.05 2530.26 1076.34 2530.47 1076.25 2524.73 1078.76 2524.99 1078.64 2519.93 1081.19 2520.24 1081.02 2515.89 1083.6 2517.33 1082.33 2507.07 1095.5 2498.93 1089.17 2509.79 1075.22 2515.13 1072.06 2520.47 1069.37 2526.43 1066.76 2529.87 1065.43ZM3081.64 969.784C3086.73 962.923 3096.42 961.487 3103.28 966.577 3110.14 971.667 3111.58 981.355 3106.49 988.216 3101.4 995.078 3091.71 996.514 3084.85 991.424 3077.99 986.334 3076.55 976.645 3081.64 969.784ZM2515.42 1101.55C2510.33 1108.41 2500.64 1109.85 2493.78 1104.76 2486.92 1099.67 2485.49 1089.98 2490.58 1083.12 2495.67 1076.26 2505.35 1074.82 2512.22 1079.91 2519.08 1085 2520.51 1094.69 2515.42 1101.55Z"/></g></svg>